<?xml version="1.0" encoding="UTF-8"?>
<!DOCTYPE svg PUBLIC "-//W3C//DTD SVG 1.1//EN" "http://www.w3.org/Graphics/SVG/1.1/DTD/svg11.dtd">
<!-- Creator: CorelDRAW 2019 (64-Bit) -->
<svg xmlns="http://www.w3.org/2000/svg" xml:space="preserve" width="17.7798mm" height="17.7798mm" version="1.1" style="shape-rendering:geometricPrecision; text-rendering:geometricPrecision; image-rendering:optimizeQuality; fill-rule:evenodd; clip-rule:evenodd"
viewBox="0 0 1777.98 1777.98"
 xmlns:xlink="http://www.w3.org/1999/xlink">
 <defs>
  <style type="text/css">
   <![CDATA[
    .fil0 {fill:#184485;fill-rule:nonzero}
   ]]>
  </style>
 </defs>
 <g id="Слой_x0020_1">
  <metadata id="CorelCorpID_0Corel-Layer"/>
  <path class="fil0" d="M1380.14 1028.55c-3.69,-40.16 -20.24,-73.09 -51.19,-98.97 -60.14,-50.26 -132.69,-65.37 -207.71,-73.29 -20.06,-2.12 -40.11,-4.38 -60.22,-3.05l0 0 0 -22.7 -37.35 -5.38c-5.06,-13.73 -11.95,-26.57 -20.36,-38.23 6.47,-8.69 13.55,-16.86 21.55,-24.13 45.66,-41.53 91.52,-82.85 137.2,-124.34 27.23,-24.75 54.28,-49.72 81.4,-74.57 2.64,-2.45 5.06,-4.31 3.63,-9.14 -6.1,-20.76 -13.97,-40.7 -25.26,-59.19 -27.76,-45.4 -65.47,-78.91 -116.87,-94.89 -33.11,-10.29 -67.24,-13.45 -101.65,-7.62 -31.07,5.28 -59.91,16.05 -82.61,38.99 -33.78,34.14 -52.07,76.68 -62.18,122.53 -11.82,53.61 -15.18,108.18 -11.9,163.02 0.14,2.28 0.1,4.25 -0.18,5.96 -8.17,1.43 -16.15,3.47 -23.88,6.04 -2.88,-3.08 -6.33,-5.64 -9.41,-8.56l-14.09 -13.65 -34.44 20.09 0.94 7.22c-4.81,-2.03 -6.98,-5.46 -9.63,-8.28 -66.96,-71 -133.87,-142.07 -200.77,-213.13 -2.45,-2.59 -4.55,-4.15 -8.62,-2.78 -35.95,12.08 -68.25,30.08 -94.45,57.92 -35.94,38.17 -53.29,84.03 -55.19,136.01 -0.89,24.72 1.67,49.05 10.03,72.6 12.75,35.86 37.99,60.92 69.46,80.37 61.89,38.23 130.36,53.43 202.01,56.66 0.51,0.03 1.02,0.05 1.54,0.07 0.6,0.02 1.16,0.07 1.67,0.14l6.18 0.41 0.18 1.05 0 0.01 -0.18 -0.02 1.64 8.43 0.02 0.15 0.07 0.49c0.37,2.32 0.73,4.23 1.17,5.84l1.4 7.2 31.25 4.15c5.69,12.84 13.06,24.91 21.77,35.94 -0.87,2.8 -2.71,5.68 -5.8,9.28 -1.84,2.12 -3.82,4.11 -5.9,6.01 -42.7,39.12 -85.27,78.35 -128.19,117.23 -18.82,17.04 -37.84,33.85 -56.86,50.67 12.84,-1.94 25.75,-3.22 38.74,-4.08 48.27,-47.11 96.89,-93.85 145.4,-140.73 1.48,-1.43 2.66,-3.48 5.68,-3.02l20.7 18.68 29.55 -14.93c12.69,8.07 26.46,14.49 40.93,18.89l5.43 26.4 1.32 5.64 33.15 5.74 13.18 -25.81c1.18,-1.86 2.16,-3.85 3.28,-5.75 2.24,-0.18 4.47,-0.41 6.69,-0.69 0.12,23.7 -3.32,47.39 -6.46,71.09 -2.52,19 -7.29,37.54 -12.37,55.97 -0.89,3.27 -2.7,7.28 2.51,7.76 9.24,0.85 18.42,3.63 27.94,1.95 0.38,-1.08 0.8,-1.86 0.97,-2.7 8.84,-44.16 14.13,-88.67 13.05,-133.84 -0.04,-1.71 -0.56,-3.73 -0.5,-5.57 3.21,-0.97 6.37,-2.04 9.49,-3.21 1.14,0.95 2.2,2.08 3.29,2.98 6.79,5.53 21.84,23.1 21.84,23.1l2.57 2.21 31.31 -16.22 -4.2 -16.88c-0.77,-5.22 -2.45,-10.37 -3.36,-15.65l-0.08 -0.8 0 -0.01c2.26,-1.62 5.37,-3.97 7.75,-6.23 1.05,0.27 2.06,0.85 2.96,1.8l0.09 0.09c35.92,37.99 71.81,76.03 107.72,114.04 38.62,40.89 77.62,81.47 115.6,122.95 7.04,7.67 13.08,8.31 21.41,5.52 1.99,-0.68 3.96,-1.47 5.95,-2.18 44.49,-15.72 82.14,-40.96 108.16,-80.96 27.32,-41.95 36.66,-88.38 32.09,-138.11zm302.88 -124.31c0,3.53 -2.86,6.39 -6.39,6.39 -3.53,0 -6.39,-2.86 -6.39,-6.39 0,-3.53 2.86,-6.39 6.39,-6.39 3.53,0 6.39,2.86 6.39,6.39zm0 -31.83c0,3.53 -2.86,6.4 -6.39,6.4 -3.53,0 -6.39,-2.87 -6.39,-6.4 0,-3.53 2.86,-6.39 6.39,-6.39 3.53,0 6.39,2.86 6.39,6.39zm-765.2 -70.06l-91.77 0 -45.87 79.47 45.87 79.47 91.77 0 45.87 -79.47 -45.87 -79.47zm-45.2 117.34l0 0c-20.42,0.15 -38.72,-17.68 -38.85,-37.84 -0.13,-20.5 17.34,-37.68 38.55,-37.9 20.68,-0.2 37.62,16.71 37.62,37.54 0,20.49 -17.16,38.05 -37.32,38.2zm294.39 527.99c-19.82,-3.36 -39.62,-7.36 -59.36,-11.81 -58.26,-13.16 -116.14,-30.1 -172.54,-45.9 -37.59,-10.54 -74.5,-20.55 -110.27,-28.66 -23.87,-5.4 -47.21,-9.95 -69.92,-13.28 -22.68,-3.3 -44.73,-5.38 -65.93,-5.89 -5.07,-0.13 -10.15,-0.19 -15.21,-0.19 -61.05,0 -121.2,8.74 -180.1,24.35 -1.64,0.44 -3.28,0.88 -4.92,1.32 7.99,6.7 16.15,13.18 24.47,19.44l0.02 0.02c2.76,2.09 5.54,4.16 8.34,6.2 51.64,-12.22 102.55,-18.45 152.37,-18.45 4.77,0 9.52,0.05 14.25,0.16 41.05,1.01 83.85,8.11 128.08,18.07 44.23,9.99 89.93,22.9 136.41,36.01 51.43,14.52 103.1,29.08 154.62,40.42 2.3,0.51 4.61,1.01 6.92,1.5 5.92,-2.29 11.8,-4.67 17.63,-7.14 11.91,-5.03 23.63,-10.43 35.14,-16.17zm-734.81 -133.74c14.6,-4.69 29.32,-9.02 44.15,-12.95 63.89,-16.95 129.91,-26.61 197.43,-26.61 5.59,0 11.21,0.07 16.84,0.2 55.1,1.33 111.33,11.61 168,25.24 56.67,13.64 113.84,30.72 170.42,46.32 37.71,10.39 75.15,20.12 111.88,27.81 41,8.57 81.07,14.58 119.59,16.31 4.23,-3.13 8.41,-6.32 12.55,-9.56 9.45,-7.39 18.68,-15.05 27.69,-22.98 -5.4,0.22 -10.83,0.33 -16.31,0.33 -42.59,-0.03 -87.63,-6.34 -136.41,-16.57 -48.8,-10.25 -101.42,-24.45 -159.12,-40.73 -50.44,-14.23 -101.12,-28.51 -151.05,-39.43 -49.95,-10.94 -99.13,-18.48 -146.48,-19.59 -5.78,-0.15 -11.59,-0.23 -17.42,-0.23 -63.89,0 -129.12,8.35 -195.42,25.06 -23.17,5.85 -46.48,12.72 -69.88,20.61 6.35,7.68 12.89,15.19 19.63,22.53l-0.01 -0.01 0.04 0.03c1.29,1.42 2.58,2.82 3.88,4.22zm-65.59 -83.69c31.88,-11.47 63.69,-21.23 95.42,-29.22 71.32,-17.99 142.15,-27.1 211.93,-27.1 6.36,0 12.71,0.07 19.05,0.24 53.37,1.28 106.68,9.64 159.28,21.14 52.59,11.51 104.52,26.18 154.96,40.41 57.24,16.16 108.6,29.96 154.66,39.63 46.04,9.68 86.73,15.14 122.53,15.12 23.38,0 44.63,-2.28 64.3,-7.07 11.21,-2.73 21.9,-6.27 32.25,-10.72 5.39,-6.9 10.65,-13.93 15.75,-21.06 73.13,-102.21 116.15,-227.35 116.16,-362.64l12.78 0 12.79 0c0,140.74 -44.82,271.15 -120.93,377.51 -25.73,35.99 -55.06,69.23 -87.46,99.19l0.02 -0.02c-13.27,12.3 -27.04,24.04 -41.29,35.18 -29.53,23.1 -61.12,43.71 -94.44,61.48l0.01 0c-17.07,9.13 -34.61,17.5 -52.55,25.08 -41.73,17.66 -85.71,31.1 -131.38,39.72 -39.35,7.46 -79.96,11.35 -121.45,11.35 -111.65,0 -216.82,-28.19 -308.6,-77.88 -28.92,-15.63 -56.52,-33.41 -82.58,-53.12l-0.07 -0.05 0.09 0.07c-11.01,-8.3 -21.77,-16.97 -32.23,-26l0.02 0.02c-19.83,-17.03 -38.6,-35.26 -56.2,-54.55l0.02 0.03c-8.13,-8.87 -16,-17.97 -23.6,-27.3l0.05 0.05 -0.02 -0.02c-15.15,-18.51 -29.28,-37.87 -42.31,-58 -65.82,-101.54 -104.07,-222.73 -104.06,-352.74 -0.01,-179.3 72.71,-341.75 190.23,-459.24 117.49,-117.52 279.94,-190.24 459.26,-190.23 179.3,-0.01 341.75,72.71 459.24,190.23 117.51,117.49 190.23,279.94 190.23,459.24l-12.79 0 -12.78 0c-0.01,-172.33 -69.81,-328.22 -182.74,-441.16 -112.94,-112.93 -268.84,-182.74 -441.16,-182.74 -172.34,0 -328.24,69.81 -441.18,182.74 -112.93,112.94 -182.73,268.83 -182.74,441.16 0,124.98 36.71,241.26 99.95,338.84l1.58 2.43zm612.01 276.26c-14.87,-4.12 -29.62,-8.28 -44.26,-12.4 -46.48,-13.12 -91.18,-25.72 -132.93,-35.12 -41.76,-9.44 -80.55,-15.64 -114.83,-16.44 -4.2,-0.09 -8.42,-0.15 -12.64,-0.15 -21.53,0 -43.41,1.31 -65.62,3.94 84.36,42.59 179.67,66.55 280.66,66.56 30.43,0 60.36,-2.18 89.62,-6.39zm608.56 -450.01c-21.81,91.24 -61.05,175.71 -114,249.71 -28.44,39.79 -60.85,76.53 -96.66,109.64l-0.01 0.01c-14.66,13.59 -29.88,26.56 -45.62,38.87 -32.65,25.54 -67.57,48.31 -104.38,67.95l-0.02 0.01c-18.85,10.08 -38.22,19.33 -58.05,27.71 -46.12,19.52 -94.71,34.36 -145.17,43.89 -43.48,8.24 -88.38,12.54 -134.27,12.54 -123.49,0 -239.61,-31.14 -341.06,-86.06l-0.1 -0.05 0.09 0.05c-31.96,-17.27 -62.45,-36.92 -91.26,-58.7l-0.02 -0.02c-12.16,-9.15 -24.03,-18.72 -35.57,-28.68l0.02 0.02 -0.05 -0.04c-21.9,-18.82 -42.63,-38.95 -62.09,-60.28l-0.02 -0.02 -0.01 -0.01c-8.96,-9.77 -17.64,-19.81 -26.01,-30.09l-0.04 -0.04 0.02 0.01c-16.74,-20.44 -32.35,-41.83 -46.76,-64.09 -33.91,-52.32 -61.19,-109.32 -80.65,-169.83l-24.34 7.83c20.16,62.68 48.42,121.73 83.53,175.9 14.93,23.05 31.09,45.21 48.43,66.39l-0.02 -0.03c8.69,10.68 17.7,21.1 27,31.24l-0.03 -0.04 0.01 0.01c20.15,22.09 41.63,42.95 64.33,62.45l-0.05 -0.05 0.02 0.03c11.98,10.33 24.29,20.25 36.9,29.75l-0.02 -0.02c29.83,22.56 61.41,42.91 94.52,60.8l0.09 0.05 -0.09 -0.05c105.06,56.88 225.43,89.15 353.23,89.15 47.49,0 93.98,-4.46 139.02,-12.99 52.28,-9.87 102.61,-25.25 150.38,-45.47 20.54,-8.68 40.61,-18.26 60.15,-28.71l-0.01 0.01c38.13,-20.35 74.3,-43.93 108.1,-70.38 16.31,-12.75 32.07,-26.19 47.25,-40.26l0.2 -0.18 -0.21 0.19c37.08,-34.29 70.65,-72.33 100.1,-113.53 54.83,-76.62 95.47,-164.12 118.07,-258.64l-24.87 -5.95zm20.23 -124.2l-0.67 0.62 0.12 0.13 0.27 0.29 59.69 -0.22 -0.04 -14.1 -59.3 0.21 -0.28 0c-3.09,0 -5.42,-0.2 -7.09,-0.89 -1.25,-0.52 -2.17,-1.27 -2.95,-2.5 -2.38,-3.7 -2.93,-12.23 -2.96,-29.47 -0.01,-1.05 -0.01,-2.06 -0.01,-3.03 -0.02,-14.03 0.45,-21.74 2.28,-25.62 0.91,-1.94 2.03,-2.93 3.72,-3.58 1.69,-0.64 4.01,-0.84 7.06,-0.85l59.29 -0.21 -0.05 -14.1 -59.29 0.2c-5.4,0.03 -9.7,0.2 -13.21,1.13 -2.62,0.7 -4.8,1.86 -6.52,3.71 -2.58,2.79 -4.05,6.97 -4.93,13.25 -0.87,6.29 -1.13,14.73 -1.13,26.17 0,0.93 0,1.88 0,2.85 0.04,21.46 0.7,32.99 4.27,39.52 1.79,3.27 4.42,5.2 7.86,6.21 3.43,1 7.66,1.19 12.98,1.19l0.89 0 0 -0.91 -0.67 0.62 0.67 -0.62zm10.29 -152.57l0.9 -0.17 -0.02 -0.12 -0.9 0.17 0.19 0.89c13.1,-2.81 22.1,-5.23 27.99,-9.26 5.91,-4.04 8.46,-9.86 8.43,-18.63 -0.01,-6.86 -1.47,-15.63 -3.95,-27.25 -3.27,-15.23 -6.11,-25.33 -10.31,-31.78 -4.2,-6.47 -9.99,-9.1 -18.31,-9.06 -6.16,0 -13.8,1.34 -23.64,3.44 -13.28,2.85 -22.27,5.51 -28.1,9.72 -5.85,4.21 -8.29,10.11 -8.26,18.65 0,6.91 1.51,15.66 3.96,27.13 3.18,14.83 5.9,24.83 10.12,31.28 4.21,6.49 10.13,9.22 18.87,9.18 6.08,0 13.6,-1.24 23.22,-3.3l0.88 -0.19 -0.17 -0.87 -0.9 0.17zm-40.18 -38.8l0.9 -0.19c-1.85,-8.48 -2.82,-14.85 -2.82,-19.68 0.04,-6.8 1.8,-10.35 5.78,-13 4,-2.66 10.48,-4.23 19.67,-6.19 8.58,-1.83 14.76,-3.02 19.26,-3.02 2.76,0.01 4.85,0.44 6.55,1.38 2.52,1.4 4.34,4.02 5.99,8.57 1.65,4.54 3.09,10.91 4.92,19.49 2,9.5 3.24,16.31 3.23,21.24 0,2.85 -0.4,5.05 -1.27,6.81 -1.28,2.63 -3.62,4.46 -7.62,6.07 -3.99,1.6 -9.57,2.92 -17.03,4.51 -7.67,1.61 -13.45,2.67 -17.86,2.67 -5.58,-0.04 -8.78,-1.55 -11.56,-5.86 -2.76,-4.34 -4.83,-11.67 -7.24,-22.99l-0.9 0.19 0 0zm-67.43 -230.6l-0.21 0.89 69.76 15.95 -10.04 -16.2 -52.94 -11.93 12.91 -52.71 -10.03 -16.2 -16.72 69.18 -28.49 17.65 7.42 11.99 28.82 -17.85 -0.48 -0.77 -0.21 0.89 0.21 -0.89zm-136.61 -120.1l-0.67 0.63 51.87 55.89 9.46 -8.76 -42.98 -46.33 52.23 -48.47 -9.51 -10.25 -61.69 57.25 0.62 0.67 0.67 -0.63zm-2.59 -78.04l0.9 -0.14 -0.03 -0.17 -0.9 0.14 0.73 0.55c4.81,-6.52 7.08,-12.56 7.09,-18.09 0.01,-7.18 -3.87,-13.32 -10.48,-18.18l-54.76 -40.46 -50.02 67.71 11.34 8.38 17.81 -24.11 43.04 31.79c4.94,3.65 10.12,5.7 15.33,5.7 7.24,0 14.35,-3.99 20.68,-12.58l0.23 -0.31 -0.06 -0.37 -0.9 0.14zm-10.26 -26.44l-0.55 0.73c2.79,2.08 4.32,4.6 4.33,7.77 0,2.77 -1.21,6.14 -4.14,10.1 -3.86,5.21 -7.61,7.22 -10.97,7.21 -2.08,0 -4.09,-0.75 -6,-2.16l-43.03 -31.8 16.87 -22.83 42.94 31.71 0.55 -0.73 0 0zm-114.86 -58.2l0.86 -0.31 -0.05 -0.16 -0.86 0.31 0.83 0.39c2.54,-5.48 3.76,-10.41 3.76,-14.82 0.03,-9.2 -5.4,-15.94 -14.29,-20.05l-61.72 -28.75 -35.55 76.3 12.79 5.95 12.66 -27.17 48.49 22.59c4.1,1.91 8.15,2.94 12.04,2.94 8.76,0.02 16.54,-5.32 21.87,-16.84l0.16 -0.33 -0.13 -0.36 -0.86 0.31zm-15.31 -23.87l-0.38 0.83c3.8,1.81 5.96,4.57 5.99,8.9 0,2.35 -0.68,5.2 -2.25,8.57 -3.23,6.87 -7.12,9.41 -11.03,9.42 -1.5,0 -3.04,-0.38 -4.59,-1.11l-48.49 -22.59 11.98 -25.73 48.39 22.54 0.38 -0.83 0 0zm-131.35 -2.95l0.49 0.76 0.14 -0.09 0.31 -0.2 13.82 -58.03 -13.72 -3.27 -13.74 57.68c-0.84,3.59 -1.72,6.08 -3.08,7.55 -1.35,1.47 -3.24,2.21 -6.72,2.22 -4.92,0.01 -12.76,-1.6 -25.26,-4.58 -12.14,-2.89 -19.79,-4.95 -24.27,-7.11 -2.24,-1.08 -3.67,-2.17 -4.51,-3.33 -0.85,-1.17 -1.2,-2.44 -1.21,-4.12 0,-1.6 0.35,-3.54 0.91,-5.91l13.74 -57.68 -13.72 -3.26 -13.74 57.67c-1.2,5.01 -2.02,9.08 -2.02,12.59 0,2.88 0.58,5.41 2.01,7.62 2.16,3.33 6.09,5.83 12.43,8.26 6.34,2.42 15.16,4.78 27.31,7.67 15.68,3.78 26.01,5.86 33.22,5.86 6.08,0.03 10.08,-1.56 12.78,-4.99 2.68,-3.4 4.1,-8.34 5.72,-15.1l-0.89 -0.21 0.49 0.76 -0.49 -0.76zm-235.81 -34.7l0 -0.01 -0.91 -0.03 0.91 0.04zm-0.91 -0.04l-0.04 0.91 0.01 0 0.03 -0.91zm92.18 -26.17l0.03 -0.92 -0.01 0 -0.02 0.92zm1.29 33.88l0.11 0 0.06 -0.91 -0.03 0 -0.03 0.91 0.8 0.02c-0.14,4.75 -0.93,8.62 -2.48,11.77 -1.54,3.15 -3.88,5.53 -6.97,7.25 -6.2,3.43 -15.33,4.35 -28.08,4.36 -3.76,0 -7.84,-0.08 -12.25,-0.21 -15.02,-0.45 -25.11,-1.74 -31.97,-4.16 -6.85,-2.4 -10.53,-6.1 -12.2,-11.06 -1.12,-3.29 -1.42,-7.08 -1.42,-11.43 0,-1.37 0.03,-2.79 0.07,-4.27l0.03 -0.93 13.97 0.56 -0.02 0.9c-0.03,1.05 -0.05,2.04 -0.05,2.97 -0.01,3.1 0.23,5.48 0.96,7.25 0.73,1.77 1.88,3.01 4.01,4.04 4.26,2.05 12.48,2.82 27.13,3.24 4.68,0.14 8.79,0.22 12.37,0.22 6.97,0 11.98,-0.33 15.44,-1.21 3.48,-0.9 5.3,-2.24 6.35,-4.3 0.71,-1.39 1.06,-3.2 1.13,-5.52 0.02,-0.68 0.03,-1.31 0.03,-1.9 0.01,-2.23 -0.21,-3.82 -0.83,-4.93 -0.63,-1.1 -1.68,-1.94 -3.82,-2.65 -4.26,-1.42 -12.49,-2.01 -27.37,-2.84 -14.73,-0.92 -24.77,-2.62 -31.67,-5.22 -6.88,-2.58 -10.67,-6.18 -12.48,-10.72 -1.22,-3.02 -1.58,-6.39 -1.58,-10.1 0,-0.66 0.01,-1.32 0.03,-2 0.14,-4.47 0.71,-8.14 1.96,-11.16 1.24,-3.02 3.19,-5.37 5.96,-7.07 5.54,-3.4 14.09,-4.36 27.29,-4.37 3.64,0 7.63,0.07 12.01,0.2 13.98,0.42 23.48,1.75 30,4.2 6.53,2.42 10.11,6.12 11.77,10.99 1.12,3.23 1.44,6.92 1.44,11.13 0,1 -0.02,2.03 -0.05,3.09l-0.03 0.92 -13.85 -0.41 0.02 -0.91c0.02,-0.6 0.03,-1.18 0.03,-1.73 0,-3.07 -0.3,-5.41 -1.08,-7.17 -0.78,-1.76 -1.97,-2.99 -4.03,-4 -4.12,-2.01 -11.73,-2.72 -24.6,-3.09 -4.33,-0.13 -8.1,-0.2 -11.38,-0.2 -7.34,-0.01 -12.23,0.37 -15.39,1.22 -3.17,0.88 -4.5,2.07 -5.28,3.93 -0.51,1.26 -0.73,2.9 -0.81,4.98l-0.92 -0.04 0.92 0.02 -0.01 0.76c0,2.4 0.37,4.25 1.24,5.73 0.88,1.48 2.29,2.68 4.63,3.72 4.66,2.08 12.88,3.32 26.31,4.41 14.36,1.07 24.27,2.04 31.15,3.78 6.86,1.71 10.86,4.32 12.82,8.68 1.3,2.88 1.71,6.38 1.71,10.76 0,0.81 -0.02,1.65 -0.04,2.53l-0.03 0.94 -0.94 -0.06 -0.1 0c0.01,-0.3 0.03,-0.61 0.04,-0.91zm-256.22 46.7l0.28 0.87 18.48 -6.08 -26.31 -79.94 -13.4 4.4 22.13 67.24 -88.01 -45.55 -18.27 6 26.31 79.95 13.39 -4.41 -21.97 -66.77 87.29 45.28 0.36 -0.12 -0.28 -0.87zm-131.92 51.78l0.47 0.79 13.21 -7.83 -81.02 -49.84 -17.42 10.32 4.79 95.01 13.68 -8.11 -1.04 -20.66 49.61 -29.38 17.72 10.77 0.47 -0.28 -0.47 -0.79zm-69.26 -43.21l-0.48 0.78 40.18 25.02 -38.64 22.89 -2.71 -46.65 2.11 -1.25 -0.46 -0.79 0 0 -0.48 0.78 0.48 -0.78zm-57.5 126.99l0.64 0.66 9.36 -9.14 -58.79 -60.24 -16.69 16.29 16.55 77.27 -76.84 -18.44 -16.7 16.29 58.78 60.25 10.1 -9.86 -49.77 -51.01 0.63 -0.61 82.77 18.81 6.23 -6.08 -16.77 -83.21 0.71 -0.7 49.78 51.01 0.65 -0.63 -0.64 -0.66zm-118.9 130.45l0.77 0.49 8.18 -13 -94.82 -7.36 -10.79 17.13 47.62 82.34 8.48 -13.47 -10.36 -17.9 30.72 -48.78 20.68 1.5 0.29 -0.46 -0.77 -0.49zm-81.34 -6.83l-0.08 0.91 47.17 3.92 -23.92 38 -23.7 -40.27 1.3 -2.07 -0.77 -0.49 0 0 -0.08 0.91 0.08 -0.91zm-64.2 131.66l13.42 -35.3 -12.06 -4.58 -31.24 82.17 12.06 4.59 13.14 -34.55 66.62 25.33 5.01 -13.19 -67.47 -25.65 -0.33 0.85 0.85 0.33zm20.09 200.66l0 0 0.9 0.15 -0.9 -0.15zm0.9 0.15l0.9 0.16 13.71 -78.57 -12.71 -2.22 -11.45 65.57 -22.98 -4.01 11.05 -63.32 -12.7 -2.22 -11.06 63.32 -21.79 -3.8 11.45 -65.58 -12.71 -2.22 -13.87 79.47 82.9 14.48 0.16 -0.9 -0.9 -0.16zm-3.57 72.6l0.92 -0.03 -0.72 -19.44 -84.09 3.11 0.51 14.09 70.73 -2.61 -68.17 71.91 0.7 19.22 84.1 -3.1 -0.52 -14.09 -70.24 2.59 67.71 -71.29 -0.01 -0.39 -0.92 0.03zm1528.92 4.33l-12.78 0c-0.01,178.03 -56.64,342.74 -152.88,477.24 -32.53,45.51 -69.6,87.53 -110.56,125.4l-0.01 0.02c-16.77,15.54 -34.18,30.38 -52.19,44.45 -37.34,29.21 -77.28,55.26 -119.39,77.73l-0.02 0.01c-21.56,11.53 -43.72,22.11 -66.39,31.69 -52.76,22.33 -108.34,39.31 -166.06,50.21 -49.74,9.43 -101.09,14.35 -153.58,14.35 -141.24,-0.01 -274.07,-35.64 -390.12,-98.44 -36.56,-19.77 -71.43,-42.23 -104.39,-67.15l0.03 0.02 -0.05 -0.04c-13.91,-10.47 -27.49,-21.42 -40.69,-32.81l-0.05 -0.04 0.03 0.03c-25.06,-21.54 -48.77,-44.56 -71.03,-68.96l-0.02 -0.02 -0.01 -0.01c-10.25,-11.18 -20.18,-22.66 -29.76,-34.43l-0.01 -0.01 -0.01 -0.01c-19.14,-23.39 -37,-47.85 -53.48,-73.31 -83.22,-128.4 -131.54,-281.46 -131.54,-445.92 0.01,-226.77 91.88,-431.96 240.49,-580.59 148.63,-148.61 353.82,-240.48 580.61,-240.49 226.77,0.01 431.96,91.88 580.59,240.49 148.6,148.63 240.48,353.82 240.49,580.59l12.78 0 12.79 0c0,-233.75 -94.79,-445.5 -247.98,-598.67 -153.18,-153.19 -364.92,-247.99 -598.67,-247.98 -233.76,-0.01 -445.51,94.79 -598.69,247.98 -153.19,153.17 -247.99,364.92 -247.98,598.67 -0.01,169.5 49.85,327.45 135.65,459.82 16.99,26.25 35.41,51.49 55.15,75.61l-0.02 -0.03c9.9,12.15 20.16,24.02 30.76,35.57l-0.03 -0.04 0 0.01c22.95,25.16 47.41,48.91 73.26,71.12l0.02 0.02 -0.04 -0.04c13.63,11.77 27.65,23.06 42.01,33.88l-0.02 -0.03 0 0.01c33.98,25.7 69.95,48.86 107.65,69.25 119.65,64.76 256.73,101.52 402.28,101.52 54.09,0 107.03,-5.08 158.34,-14.79 59.52,-11.25 116.85,-28.77 171.25,-51.79 23.39,-9.88 46.25,-20.79 68.51,-32.69l-0.02 0c43.43,-23.17 84.62,-50.03 123.11,-80.14 18.58,-14.53 36.53,-29.83 53.82,-45.86l-0.01 0.02c42.23,-39.06 80.46,-82.38 114,-129.31 99.23,-138.65 157.65,-308.63 157.65,-492.11l-12.79 0zm-761.1 -141.92c-13.16,-8.69 -27.67,-15.46 -43.14,-19.92l-0.99 -19.48 0 -13.81 -16.82 0 -26.17 0.84c-1.81,-15.91 0.06,-27.7 1.28,-42.1l0 0c4.49,-52.49 16.03,-103.13 39.52,-150.6 19.31,-38.99 47.1,-67.72 92.27,-74.93 28.34,-4.53 56.34,-3.05 83.9,5.13 54.32,16.11 90.54,52.96 115.05,102.28 12.69,25.51 13.99,17.07 -6.03,36.69 -59.92,58.73 -119.32,118.03 -180.76,175.22 -2.61,2.42 -4.82,5.53 -9.26,6.41l-20.93 -22.99 -22.88 14.97c-1.67,0.78 -3.42,1.44 -5.04,2.29zm-194.53 13.66c-3.04,2.57 -5.98,5.25 -8.83,8.03 -4.84,4.74 -9.39,9.76 -13.62,15.05 -1.99,-0.83 -4.36,-1.98 -7.33,-3.42 -8.75,-4.23 -17.52,-8.43 -26.38,-12.47 -17.73,-8.07 -30.11,-21.33 -37.93,-38.96 -4.77,-10.75 -9.17,-21.65 -14.78,-34.95 -5.89,11.18 -10.44,20.09 -15.32,28.82 -1.79,3.19 -1.53,5.58 0.82,8.18 1.96,2.16 3.14,4.71 1.03,7.38 -2.01,2.48 -4.75,2.26 -7.55,1.42 -10.48,-3.12 -20.96,-6.21 -31.45,-9.29 -3.74,-1.1 -5.79,-3.4 -4.82,-7.44 1.04,-4.34 4.48,-6.06 8.33,-5.24 4.99,1.08 9.83,3.05 14.63,4.91 5.42,2.09 9.17,1.34 11.6,-4.62 2.04,-5.04 4.38,-10.21 7.72,-14.41 11.05,-13.84 8.88,-26.9 1.17,-41.8 -7.67,-14.81 -18.69,-21.24 -34.53,-24.35 -28.68,-5.6 -55.51,-2.3 -81.26,11.18 -1.32,0.7 -2.48,1.63 -3.82,2.52 1.15,4.02 4.77,4.69 7.53,6.1 12.69,6.49 25.24,13.41 38.39,18.85 15.67,6.46 16.54,17.42 10.61,30.34 -7.98,17.34 -17.56,33.98 -26.54,50.88 -13.26,24.91 -26.61,49.77 -40.86,76.41 12.37,-0.58 23.38,-0.89 34.34,-1.7 5.74,-0.42 11.38,-1.99 17.12,-2.5 3.17,-0.27 4.89,-1.57 6.31,-4.24 6.12,-11.48 12.41,-22.9 18.52,-34.17 -2.48,-4.99 -7.78,-3.69 -11.08,-6.29 -2.82,-2.22 -5.67,-4.19 -4.31,-8.06 1.55,-4.49 4.98,-2.06 7.67,-1.33 9.66,2.64 19.28,5.4 28.87,8.23 3.87,1.14 6.83,3.34 5.41,7.91 -1.32,4.25 -4.97,5.66 -8.71,4.02 -7.95,-3.47 -11.53,0.11 -14.69,6.97 -3.63,7.9 -8.29,15.33 -13.13,24.1 10.83,0.96 19.76,-1.68 28.8,-3.26 15.51,-2.72 30.92,-6.35 46.76,-1.4 8.18,2.56 15.79,5.93 23.1,10.39 11.19,6.82 22.64,13.17 33.9,19.84 -1.79,9.32 -2.73,18.9 -2.73,28.67l0 1c0.01,0.8 0.02,1.6 0.04,2.39 -10.1,5.7 -21.05,5.06 -33.11,3.46l0 0c-37.77,-5.06 -74.82,-12.61 -110.62,-25.79 -27.78,-10.25 -53.77,-23.91 -78.43,-40.42 -42.9,-28.71 -59.97,-69.78 -57.58,-119.72 2.7,-56.18 26.57,-101.6 72.45,-134.86 12.36,-8.94 26.23,-15.3 39.72,-22.28 4.48,-2.31 7.27,-0.42 10.34,2.6 25.66,25.11 51.65,49.87 77.06,75.24 44.79,44.69 89.27,89.71 133.83,134.66 1.29,1.3 2.41,2.43 3.34,3.42zm223.88 228.22c2.98,-3.31 5.83,-6.74 8.55,-10.28 19.64,11.61 39.37,23.23 59.06,34.91 52.22,30.98 104.28,62.25 156.68,92.91 24.66,14.43 53.06,9.46 67.98,-10.76 19.6,-26.53 10.74,-63.26 -19.43,-77.96 -64.95,-31.68 -130.09,-62.92 -195.17,-94.34 -12.03,-5.8 -24.12,-11.5 -36.12,-17.4 -0.37,-0.18 -0.77,-0.36 -1.17,-0.54 1.26,-7.79 1.94,-15.74 2.01,-23.81l0.35 -0.14c7.32,-2.76 14.92,-5.21 23.06,-4.47 48.77,4.47 97.25,10.46 144.18,25.34 37.67,11.97 72.85,28.62 103.95,53.46 25.84,20.64 39.17,47.83 41.31,80.18 5.48,83.17 -31.57,149.74 -115.02,183.46l0 0c-6.14,2.48 -9.48,-0.21 -13.33,-4.15 -58.81,-60.32 -118.35,-119.93 -178.55,-178.89 -16.28,-15.93 -32.49,-31.93 -48.34,-47.52zm-445.71 -231.69c-8.38,15.72 -16.49,30.95 -25.25,47.39 -23.63,-22.41 -43.31,-45.64 -46.3,-80.58 24.8,10.35 45.38,26.23 71.55,33.19zm208.61 122.53l0 0c-0.16,-66.14 52.44,-119.87 121.73,-119.12 62.53,0.66 116.85,56.62 114.01,123.68 -2.66,63.17 -55.1,115.53 -117.7,113.2 -73.37,1.7 -117.89,-56.97 -118.04,-117.76zm-158.64 -130.24l0 0c-3.39,-1.21 -5.42,-4.28 -4.05,-8.07 1.35,-3.77 4.31,-6.25 8.47,-5.1 11.09,3.09 22.1,6.39 33.02,9.94 3.29,1.05 5.9,3.37 4.41,7.65 -1.5,4.23 -4.24,6.55 -9.1,6.24 -10.92,-3.52 -21.92,-6.88 -32.75,-10.66zm31.07 24.23l0 0c-1.46,3.48 -3.96,5.32 -9.53,4.11 -9.77,-2.77 -21.17,-5.93 -32.5,-9.33 -3.81,-1.15 -5.2,-4.24 -3.88,-7.96 1.26,-3.55 4.36,-5.61 7.9,-4.53 11.58,3.56 23.05,7.54 34.5,11.52 2.69,0.94 4.97,2.72 3.51,6.19zm584.25 280.37l0 0 24.4 -19.31 28.91 11.49 4.52 30.77 -24.41 19.31 -28.91 -11.49 -4.51 -30.77z"/>
 </g>
</svg>
